<svg width="163" height="58" viewBox="0 0 163 58" fill="none" xmlns="http://www.w3.org/2000/svg">
<g id="Logo">
<path d="M32.211 41.7664C32.2446 40.4449 32.2923 38.9152 32.3543 37.1774C32.4163 35.4396 32.4875 33.6244 32.5678 31.7318C32.647 29.8239 32.7256 27.9084 32.8036 25.9853C32.8967 24.0611 32.9919 22.2593 33.089 20.5801C32.4061 22.198 31.7162 23.8243 31.0193 25.4587C30.3223 27.0931 29.6574 28.6483 29.0244 30.1244C28.4055 31.584 27.8295 32.9098 27.2965 34.1019C26.7787 35.2929 26.3575 36.2538 26.0328 36.9848C25.7205 37.4848 25.4064 37.9619 25.0906 38.4162C24.7747 38.8704 24.4546 39.2713 24.1303 39.6189C23.8213 39.9653 23.5074 40.2507 23.1887 40.4751C22.8688 40.6843 22.5493 40.8015 22.2303 40.8266C21.8048 40.8601 21.4558 40.7956 21.1831 40.633C20.9256 40.4692 20.7824 40.2044 20.7537 39.8387C20.7477 39.7625 20.7423 39.6939 20.7375 39.6329C20.7467 39.5555 20.7634 39.4775 20.7878 39.3989C20.5263 37.2418 20.2864 35.0677 20.0681 32.8765C19.8486 30.6701 19.6549 28.5001 19.487 26.3663C19.4474 25.8633 19.4078 25.3604 19.3682 24.8574C19.3286 24.3544 19.2972 23.8585 19.274 23.3696C18.7742 24.7891 18.2255 26.2662 17.6277 27.8008C17.0299 29.3354 16.4006 30.8572 15.7396 32.3661C15.0775 33.8597 14.3889 35.3095 13.674 36.7153C12.9579 38.1058 12.2328 39.3821 11.4987 40.544C10.7634 41.6907 10.0236 42.6844 9.27953 43.5251C8.54942 44.3494 7.8317 44.9426 7.12638 45.3048C6.50862 45.6141 5.96843 45.8407 5.50581 45.9844C5.04439 46.1434 4.63135 46.2373 4.26669 46.266C3.71971 46.309 3.30047 46.227 3.00898 46.0199C2.73389 45.8269 2.58375 45.5703 2.55856 45.2503C2.52857 44.8692 2.65692 44.4604 2.94361 44.0238C3.2303 43.5871 3.65334 43.2318 4.21272 42.9577C4.89005 42.6284 5.60238 41.9666 6.34968 40.9723C7.11099 39.9616 7.87949 38.7509 8.65519 37.3403C9.43088 35.9297 10.2022 34.3661 10.9691 32.6495C11.736 30.9329 12.4707 29.1958 13.1732 27.4383C13.891 25.6795 14.5585 23.9631 15.1759 22.2889C15.792 20.5995 16.3372 19.0767 16.8114 17.7205C17.2856 16.3643 17.6709 15.2375 17.9672 14.34C18.2774 13.4262 18.4698 12.8589 18.5441 12.6384C18.7197 12.1492 18.989 11.7829 19.352 11.5396C19.7151 11.2964 20.0941 11.1592 20.4892 11.1281C21.0362 11.0851 21.428 11.2076 21.6647 11.4957C21.9002 11.7685 22.048 12.2859 22.108 13.048C22.3051 13.9986 22.4752 14.8977 22.6183 15.7453C22.7755 16.5764 22.9198 17.4391 23.0514 18.3336C23.1817 19.2128 23.2953 20.17 23.392 21.2052C23.5028 22.224 23.611 23.404 23.7165 24.7452C23.7921 25.7054 23.8527 26.7665 23.8982 27.9284C23.959 29.0891 24.0458 30.3858 24.1585 31.8185C25.7203 28.3524 27.1006 25.2993 28.2993 22.6593C29.512 20.0028 30.5678 17.7804 31.4667 15.992C32.3795 14.1873 33.1588 12.8224 33.8046 11.8974C34.4491 10.9572 34.9841 10.4704 35.4095 10.4369L35.5691 10.4244C35.6147 10.4208 35.6603 10.4172 35.7058 10.4136C35.7502 10.3948 35.7952 10.3836 35.8408 10.38C36.2054 10.3513 36.5121 10.5572 36.7608 10.9977C37.0095 11.4382 37.1627 12.0242 37.2202 12.7558C37.2182 13.5074 37.2002 14.4443 37.1663 15.5665C37.1323 16.6886 37.0845 17.9269 37.0229 19.2813C36.9753 20.6193 36.9185 22.0346 36.8526 23.5274C36.7866 25.0201 36.72 26.5052 36.6528 27.9828C36.5845 29.445 36.5207 30.8686 36.4615 32.2535C36.4175 33.6371 36.3861 34.8895 36.3673 36.0104C36.3526 36.211 36.3536 36.4179 36.3703 36.6313C36.3859 36.8294 36.4021 37.0352 36.4189 37.2486C36.4501 37.6448 36.4895 38.0481 36.5371 38.4585C36.5835 38.8535 36.6222 39.2492 36.6534 39.6455C36.6894 40.1027 36.7032 40.5694 36.6948 41.0454C36.6852 41.5063 36.5891 41.9356 36.4063 42.3333C36.2376 42.7147 35.9419 43.037 35.5193 43.3003C35.0978 43.5788 34.4997 43.7486 33.7248 43.8096C33.3145 43.8419 32.9753 43.7075 32.707 43.4066C32.4399 43.1209 32.2745 42.5742 32.211 41.7664Z" fill="black"/>
<path d="M45.3487 20.3889C45.3211 20.0384 45.3537 19.6754 45.4464 19.3001C45.5532 18.9083 45.7237 18.5498 45.958 18.2247C46.1923 17.8995 46.4916 17.6229 46.8559 17.3949C47.2353 17.1657 47.6909 17.0301 48.2227 16.9883C49.104 16.9189 49.7332 17.0457 50.1102 17.3688C50.4861 17.6766 50.6944 18.0896 50.7352 18.6078C50.7579 18.8974 50.7224 19.2222 50.6284 19.5824C50.5496 19.9413 50.4083 20.2821 50.2044 20.6049C49.9992 20.9124 49.7221 21.1796 49.3731 21.4064C49.024 21.6332 48.5988 21.7664 48.0974 21.8059C47.1554 21.88 46.483 21.7872 46.0804 21.5275C45.6765 21.2526 45.4326 20.8731 45.3487 20.3889ZM43.2465 25.7302C43.4712 25.2831 43.7435 24.9549 44.0634 24.7457C44.3832 24.5365 44.7179 24.4182 45.0674 24.3907C45.6447 24.3452 46.1535 24.4969 46.5938 24.8456C47.048 25.1779 47.2979 25.6337 47.3435 26.2129C47.3391 26.3512 47.3271 26.4902 47.3075 26.6298C47.3031 26.7681 47.2683 26.9089 47.2031 27.052C47.0216 27.465 46.8733 27.8141 46.7581 28.0992C46.6429 28.3843 46.5342 28.6536 46.4318 28.907C46.3435 29.144 46.2551 29.381 46.1667 29.618C46.0784 29.855 45.9708 30.1395 45.8441 30.4715C45.6917 30.8669 45.5196 31.3021 45.3277 31.7773C45.1345 32.2373 44.9502 32.7118 44.7747 33.2011C44.6143 33.6891 44.4762 34.1677 44.3602 34.6369C44.2595 35.1049 44.2241 35.5294 44.2541 35.9104C44.2865 36.3219 44.4068 36.5885 44.6151 36.7101C44.8374 36.8153 45.1385 36.853 45.5184 36.8231C45.9438 36.7896 46.3772 36.6635 46.8187 36.4447C47.2753 36.2247 47.7277 35.9514 48.1759 35.6248C48.6242 35.2981 49.0618 34.934 49.4888 34.5323C49.9147 34.1154 50.3101 33.7009 50.6752 33.2888C51.0554 32.8754 51.4936 32.523 51.8003 32.1462C52.1222 31.7681 52.5453 31.6404 52.7516 31.3481C53.0327 31.0346 53.0714 30.6158 53.3753 30.5919C53.6488 30.5704 53.8787 30.6749 54.065 30.9057C54.2666 31.1352 54.3823 31.4404 54.4123 31.8215C54.4399 32.172 54.3781 32.5526 54.227 32.9632C54.091 33.3726 53.8393 33.7682 53.4719 34.1498C52.7593 35.0034 52.0292 35.8276 51.2815 36.6226C50.5326 37.4023 49.7549 38.1076 48.9484 38.7385C48.1559 39.3529 47.3475 39.8613 46.523 40.2636C45.6985 40.6658 44.8532 40.901 43.9872 40.9692C42.7565 41.0661 41.7594 40.8301 40.9961 40.2615C40.2468 39.6763 39.8194 38.7132 39.7138 37.3719C39.6587 36.6708 39.7034 35.9772 39.8482 35.291C39.9929 34.6049 40.1775 33.9386 40.4018 33.2922C40.6249 32.6305 40.8656 31.9981 41.1239 31.3951C41.381 30.7767 41.5949 30.1925 41.7657 29.6423C41.826 29.4382 41.9312 29.1232 42.0811 28.6973C42.2463 28.2703 42.4184 27.835 42.5975 27.3915C42.8011 26.8694 43.0174 26.3156 43.2465 25.7302Z" fill="black"/>
<path d="M54.0779 22.9721C54.4577 22.9422 54.7868 22.9469 55.0651 22.9864C55.3434 23.0258 55.5821 23.145 55.7812 23.3441C55.9791 23.5279 56.1375 23.7914 56.2562 24.1348C56.3738 24.463 56.4541 24.9014 56.4973 25.45L56.7042 28.0792L61.4292 23.4287C62.1537 22.7275 62.9034 22.3465 63.6783 22.2855C64.1341 22.2496 64.5224 22.3264 64.843 22.5159C65.1637 22.7053 65.3379 22.9753 65.3654 23.3259C65.3822 23.5393 65.3243 23.7739 65.1915 24.0297C65.074 24.2843 64.8804 24.5449 64.6109 24.8115L57.5481 31.8083L58.0663 34.896C58.1251 35.6428 58.4203 35.9953 58.9521 35.9535C59.5295 35.908 60.2344 35.6379 61.0669 35.1429C61.8982 34.6328 62.8512 33.9213 63.926 33.0086L66.3958 30.882C66.6561 30.6928 66.9306 30.5868 67.2193 30.5641C67.5384 30.539 67.8057 30.633 68.0212 30.8461C68.2507 31.0427 68.3793 31.3163 68.4068 31.6668C68.4368 32.0479 68.3273 32.5012 68.0782 33.0269C67.8443 33.5514 67.3824 34.0938 66.6927 34.6542C65.6167 35.5516 64.6673 36.3088 63.8444 36.9257C63.0367 37.5413 62.2896 38.0525 61.6031 38.4592C60.9306 38.8496 60.2964 39.1448 59.7006 39.3451C59.1201 39.5441 58.5259 39.6676 57.9181 39.7154C56.5507 39.823 55.4945 39.5151 54.7496 38.7916C54.0199 38.0669 53.5866 36.8358 53.4499 35.0983L48.5 39C48.2293 39.2513 47.7815 39.3858 47.5 39.5C47.2045 39.6306 46.7583 39.9797 46.5 40C46.0138 40.0383 46.2541 40.503 45.8994 40.2702C45.5448 40.0374 45.3525 39.7305 45.3225 39.3495C45.2889 38.9227 45.5294 38.4821 46.044 38.0275L52.5814 31.3481L52.1442 25.7926C52.0902 25.1068 52.1552 24.5726 52.3391 24.1901C52.5231 23.8075 52.7382 23.5299 52.9845 23.3572C53.2296 23.1692 53.4655 23.0586 53.6922 23.0254C53.9189 22.9922 54.0475 22.9744 54.0779 22.9721Z" fill="black"/>
<path d="M74.5904 25.1533C73.8763 25.2095 73.1994 25.4468 72.5596 25.8652C71.9339 26.2671 71.3861 26.7857 70.9163 27.4207C70.4604 28.0394 70.11 28.734 69.8649 29.5048C69.6186 30.2603 69.526 31.0267 69.5872 31.804C69.61 32.0936 69.658 32.4118 69.7311 32.7588C69.8031 33.0905 69.9194 33.4034 70.0802 33.6975C70.2549 33.9751 70.4868 34.2022 70.7759 34.3788C71.065 34.5554 71.4375 34.6258 71.8933 34.5899C72.5922 34.5349 73.254 34.2988 73.8785 33.8816C74.5171 33.448 75.0712 32.9136 75.5411 32.2785C76.0097 31.6282 76.3659 30.9101 76.6098 30.1241C76.8537 29.3381 76.9451 28.5565 76.8839 27.7792C76.86 27.4744 76.8126 27.1637 76.7418 26.8472C76.685 26.5143 76.5699 26.2167 76.3963 25.9543C76.238 25.6907 76.0155 25.4858 75.7288 25.3397C75.4409 25.1783 75.0615 25.1162 74.5904 25.1533ZM75.4589 21.0363C76.0363 20.9909 76.6576 21.0186 77.323 21.1196C78.0035 21.2194 78.6393 21.4301 79.2302 21.7516C79.8212 22.0732 80.323 22.5244 80.7356 23.1054C81.1623 23.6699 81.4104 24.3942 81.4799 25.2781C81.5159 25.7354 81.4965 26.266 81.4218 26.87C81.3458 27.4587 81.2114 28.0827 81.0187 28.742C81.185 28.9129 81.37 29.0287 81.5735 29.0894C81.777 29.15 81.9927 29.1714 82.2207 29.1534C82.5397 29.1283 82.882 29.0094 83.2474 28.7966C83.6281 28.5826 84.0122 28.3147 84.3996 27.9928C84.787 27.6709 85.1715 27.311 85.553 26.9129C85.9344 26.5148 86.2931 26.1185 86.6289 25.724C86.9648 25.3296 87.2645 24.9609 87.528 24.6181C87.8055 24.2589 88.034 23.9572 88.2135 23.713C88.3115 23.598 88.4364 23.5345 88.5884 23.5225C88.8011 23.5058 89 23.6051 89.1851 23.8206C89.3691 24.0208 89.4766 24.3191 89.5078 24.7153C89.539 25.1116 89.4534 25.5784 89.2511 26.1158C89.064 26.6519 88.6735 27.227 88.0798 27.8412C87.7463 28.2662 87.3644 28.7563 86.9342 29.3116C86.504 29.8668 86.041 30.394 85.5451 30.8931C85.0493 31.3922 84.5253 31.8245 83.9732 32.19C83.421 32.5555 82.8562 32.761 82.2788 32.8064C81.8838 32.8375 81.4915 32.807 81.1021 32.715C80.7278 32.6218 80.34 32.4529 79.9385 32.2085C79.4587 33.1051 78.8969 33.9314 78.2532 34.6875C77.6095 35.4436 76.8743 36.1072 76.0478 36.6783C75.2366 37.2483 74.3403 37.7099 73.3591 38.0631C72.3943 38.4304 71.3497 38.6583 70.2253 38.7468C69.7999 38.7803 69.2995 38.7353 68.7241 38.6119C68.1487 38.4885 67.5878 38.2566 67.0412 37.9162C66.5086 37.5594 66.043 37.0823 65.6443 36.485C65.2457 35.8876 65.011 35.1393 64.9402 34.24C64.8922 33.6304 64.9334 32.891 65.0638 32.022C65.1941 31.1529 65.4214 30.2532 65.7457 29.3229C66.084 28.3761 66.5222 27.4368 67.0604 26.505C67.6126 25.5567 68.2865 24.6986 69.0822 23.9305C69.8767 23.1472 70.8041 22.4991 71.8645 21.9863C72.9237 21.4582 74.1218 21.1415 75.4589 21.0363Z" fill="black"/>
<path d="M89.4886 30.0077C89.3491 30.3714 89.2143 30.796 89.0844 31.2817C88.9684 31.7509 88.9248 32.1684 88.9536 32.5341C88.9716 32.7628 89.0316 32.9421 89.1335 33.0721C89.2355 33.2021 89.4156 33.2569 89.6739 33.2366C89.993 33.2115 90.3808 33.0889 90.8375 32.869C91.3081 32.6326 91.8049 32.3404 92.3279 31.9925C92.8649 31.6282 93.4141 31.2246 93.9754 30.7817C94.5508 30.3224 95.118 29.856 95.677 29.3826C96.2348 28.894 96.7628 28.4154 97.261 27.9467C97.7732 27.4617 98.2276 27.0195 98.6242 26.6203C98.7374 26.504 98.8757 26.4165 99.0393 26.3576C99.2028 26.2987 99.3454 26.2645 99.4669 26.2549C99.7708 26.231 100.03 26.3179 100.244 26.5158C100.459 26.7136 100.579 26.9878 100.607 27.3384C100.632 27.6584 100.554 28.025 100.373 28.438C100.191 28.851 99.8494 29.2689 99.3476 29.6918C98.4459 30.6676 97.5331 31.5982 96.609 32.4837C95.685 33.3693 94.7537 34.1633 93.8153 34.8659C92.8909 35.5521 91.9568 36.1164 91.0132 36.5587C90.0848 36.9998 89.1647 37.2563 88.2531 37.328C87.6301 37.377 87.0993 37.3345 86.6607 37.2003C86.2373 37.0649 85.885 36.8626 85.6039 36.5933C85.338 36.3229 85.1363 35.9937 84.9988 35.6058C84.8612 35.2179 84.775 34.803 84.7403 34.361C84.6815 33.6142 84.7279 32.8437 84.8794 32.0497C85.0449 31.2392 85.2539 30.4943 85.5062 29.815C85.9444 28.5843 86.3908 27.3607 86.8454 26.1441C87.3001 24.9274 87.7169 23.8135 88.096 22.8022L93.8411 7.51274C94.0678 6.89681 94.3995 6.44897 94.8361 6.16924C95.288 5.88831 95.7494 5.72931 96.2204 5.69224C96.6914 5.65517 97.127 5.75124 97.5273 5.98045C97.9427 6.20846 98.1732 6.61205 98.2188 7.19121C98.2404 7.46556 98.1948 7.76052 98.0821 8.07611C97.9845 8.3905 97.8508 8.73074 97.6808 9.09684C97.3573 9.84307 96.9705 10.7553 96.5203 11.8336C96.0852 12.9106 95.6118 14.0827 95.1 15.3499C94.6034 16.6158 94.0882 17.9369 93.5544 19.3131C93.0346 20.6729 92.52 22.0016 92.0106 23.2992C91.5164 24.5956 91.0478 25.8287 90.6048 26.9984C90.1757 28.1516 89.8037 29.1547 89.4886 30.0077Z" fill="black"/>
<path d="M105.951 22.6851C105.237 22.7413 104.56 22.9786 103.92 23.397C103.294 23.799 102.747 24.3175 102.277 24.9526C101.821 25.5712 101.471 26.2659 101.225 27.0366C100.979 27.7921 100.887 28.5585 100.948 29.3358C100.971 29.6254 101.018 29.9437 101.092 30.2907C101.164 30.6224 101.28 30.9353 101.441 31.2293C101.615 31.507 101.847 31.7341 102.136 31.9107C102.426 32.0873 102.798 32.1577 103.254 32.1218C103.953 32.0668 104.614 31.8307 105.239 31.4135C105.878 30.9798 106.432 30.4455 106.902 29.8104C107.37 29.1601 107.726 28.442 107.97 27.656C108.214 26.87 108.306 26.0884 108.244 25.3111C108.22 25.0062 108.173 24.6956 108.102 24.3791C108.046 24.0462 107.93 23.7485 107.757 23.4861C107.599 23.2226 107.376 23.0177 107.089 22.8716C106.801 22.7102 106.422 22.6481 105.951 22.6851ZM106.819 18.5682C107.397 18.5227 108.018 18.5505 108.684 18.6515C109.364 18.7513 110 18.962 110.591 19.2835C111.182 19.6051 111.684 20.0563 112.096 20.6373C112.523 21.2018 112.771 21.926 112.84 22.81C112.876 23.2673 112.857 23.7979 112.782 24.4018C112.706 24.9906 112.572 25.6146 112.379 26.2738C112.546 26.4448 112.731 26.5606 112.934 26.6212C113.138 26.6819 113.353 26.7033 113.581 26.6853C113.9 26.6602 114.243 26.5413 114.608 26.3285C114.989 26.1145 115.373 25.8466 115.76 25.5247C116.148 25.2028 116.532 24.8428 116.913 24.4448C117.295 24.0467 117.654 23.6504 117.989 23.2559C118.325 22.8614 118.625 22.4928 118.889 22.15C119.166 21.7908 119.395 21.4891 119.574 21.2449C119.672 21.1299 119.797 21.0663 119.949 21.0544C120.162 21.0376 120.361 21.137 120.546 21.3525C120.73 21.5527 120.837 21.8509 120.868 22.2472C120.9 22.6435 120.814 23.1103 120.612 23.6476C120.425 24.1838 120.034 24.7589 119.44 25.3731C119.107 25.798 118.725 26.2882 118.295 26.8434C117.865 27.3987 117.401 27.9259 116.906 28.425C116.41 28.9241 115.886 29.3564 115.334 29.7219C114.782 30.0874 114.217 30.2929 113.639 30.3383C113.244 30.3694 112.852 30.3389 112.463 30.2469C112.088 30.1537 111.701 29.9848 111.299 29.7404C110.819 30.6369 110.257 31.4633 109.614 32.2194C108.97 32.9755 108.235 33.6391 107.408 34.2102C106.597 34.7801 105.701 35.2417 104.72 35.595C103.755 35.9623 102.71 36.1902 101.586 36.2787C101.16 36.3122 100.66 36.2672 100.085 36.1438C99.5093 36.0204 98.9483 35.7885 98.4017 35.4481C97.8691 35.0913 97.4035 34.6142 97.0049 34.0168C96.6062 33.4194 96.3715 32.6711 96.3007 31.7719C96.2528 31.1622 96.2939 30.4229 96.4243 29.5538C96.5546 28.6848 96.7819 27.7851 97.1062 26.8548C97.4445 25.908 97.8827 24.9687 98.4209 24.0369C98.9731 23.0886 99.647 22.2305 100.443 21.4624C101.237 20.6791 102.165 20.031 103.225 19.5182C104.284 18.9901 105.482 18.6734 106.819 18.5682Z" fill="black"/>
<path d="M126.807 16.9951C127.476 16.9425 128.067 16.9803 128.582 17.1085C129.097 17.2367 129.536 17.3861 129.901 17.5567C130.316 17.7695 130.686 18.0087 131.013 18.2744C131.215 18.1204 131.432 17.973 131.666 17.8319C131.87 17.7085 132.099 17.5985 132.351 17.5019C132.602 17.3902 132.857 17.3241 133.115 17.3038C133.783 17.2512 134.311 17.3477 134.697 17.5933C135.083 17.839 135.292 18.1523 135.321 18.5333C135.337 18.7315 135.299 18.9338 135.209 19.1403L130.673 29.6879L131.075 29.2651C132.785 28.0724 134.194 27.1333 135.302 26.4481C136.409 25.7475 137.293 25.2256 137.954 24.8822C138.615 24.5388 139.087 24.3252 139.371 24.2415C139.669 24.1414 139.856 24.0884 139.932 24.0824C140.281 24.0549 140.558 24.1711 140.762 24.4311C140.98 24.6747 141.104 24.9946 141.136 25.3909C141.17 25.8329 141.077 26.2927 140.854 26.7702C140.647 27.2466 140.293 27.6042 139.792 27.843C139.136 28.2473 138.368 28.6911 137.489 29.1744C136.609 29.6424 135.694 30.1592 134.745 30.7246C133.795 31.29 132.843 31.9171 131.888 32.6056C130.948 33.2778 130.073 34.0137 129.264 34.8134L125.475 43.1859C125.178 44.0834 124.9 44.8184 124.639 45.391C124.394 45.9624 124.139 46.4195 123.876 46.7623C123.612 47.1051 123.333 47.3494 123.039 47.4953C122.745 47.6411 122.4 47.7296 122.005 47.7607C121.412 47.8073 120.925 47.6386 120.543 47.2546C120.177 46.8694 119.97 46.3872 119.925 45.808C119.877 45.1984 119.965 44.4783 120.191 43.6478C120.416 42.8173 120.749 41.9092 121.192 40.9236C121.65 39.9521 122.211 38.9188 122.874 37.8238C123.538 36.744 124.284 35.6348 125.112 34.4962L127.653 30.6616C127.118 31.2405 126.584 31.7425 126.052 32.1678C125.52 32.5931 125.005 32.948 124.508 33.2325C124.009 33.5018 123.536 33.7077 123.089 33.8503C122.656 33.9916 122.273 34.0755 121.939 34.1018C121.331 34.1496 120.758 34.0567 120.22 33.823C119.681 33.5741 119.201 33.2131 118.782 32.74C118.377 32.2657 118.042 31.6941 117.775 31.0249C117.509 30.3558 117.344 29.6174 117.28 28.8096C117.148 27.1331 117.348 25.5914 117.879 24.1847C118.426 22.7768 119.163 21.561 120.092 20.5371C121.034 19.4968 122.093 18.6697 123.267 18.0558C124.457 17.4407 125.637 17.0872 126.807 16.9951ZM126.258 21.0869C125.544 21.1431 124.867 21.3805 124.227 21.7989C123.586 22.202 123.031 22.7211 122.561 23.3562C122.09 23.976 121.732 24.6789 121.488 25.4649C121.245 26.2509 121.154 27.0478 121.218 27.8556C121.237 28.0994 121.273 28.3649 121.327 28.6521C121.394 28.9229 121.498 29.1754 121.638 29.4097C121.794 29.6428 122 29.8336 122.257 29.9821C122.527 30.1142 122.883 30.1629 123.323 30.1283C123.642 30.1031 124.004 29.9367 124.408 29.6288C124.825 29.3046 125.245 28.9111 125.668 28.4485C126.104 27.9694 126.522 27.4535 126.922 26.9006C127.32 26.3325 127.675 25.7832 127.985 25.2527C128.31 24.721 128.563 24.2487 128.744 23.8357C128.925 23.4074 129.007 23.0942 128.992 22.8961C128.965 22.5608 128.851 22.2784 128.65 22.0489C128.447 21.8041 128.202 21.6087 127.916 21.4626C127.644 21.3152 127.353 21.2154 127.044 21.1631C126.748 21.0944 126.486 21.069 126.258 21.0869Z" fill="black"/>
<path d="M151.68 17.1769C152.079 16.8081 152.416 16.5285 152.692 16.3381C152.981 16.1313 153.229 15.9814 153.436 15.8885C153.642 15.7803 153.827 15.712 153.993 15.6836C154.175 15.654 154.356 15.6321 154.539 15.6177C154.858 15.5926 155.095 15.6966 155.251 15.9297C155.406 16.1475 155.493 16.386 155.514 16.6451C155.531 16.8585 155.508 17.0596 155.447 17.2485L151.182 28.3268C151.868 27.7207 152.661 27.1215 153.563 26.5292C154.478 25.9204 155.352 25.3762 156.186 24.8965C157.034 24.4004 157.759 23.9982 158.361 23.6901C158.979 23.3808 159.334 23.2225 159.425 23.2154C159.805 23.1855 160.15 23.304 160.462 23.5708C160.773 23.8377 160.946 24.1921 160.981 24.6341C161.012 25.0304 160.893 25.4615 160.624 25.9274C160.37 26.3921 159.887 26.8595 159.175 27.3296C158.159 28.0077 157.272 28.5913 156.515 29.0802C155.758 29.5539 155.088 29.9823 154.507 30.3655C153.925 30.7486 153.41 31.0959 152.961 31.4073C152.511 31.7187 152.085 32.0359 151.682 32.359C151.295 32.6809 150.909 33.018 150.524 33.3703C150.155 33.7367 149.753 34.1595 149.316 34.6385C149.039 35.5805 148.758 36.4844 148.475 37.3502C148.207 38.2147 147.953 38.9785 147.715 39.6413C147.492 40.303 147.305 40.8391 147.154 41.2497C147.002 41.6604 146.921 41.8815 146.908 41.9132C145.879 44.5706 144.627 45.9573 143.153 46.0733C142.545 46.1211 142.035 45.9542 141.623 45.5726C141.212 45.2062 140.98 44.6801 140.926 43.9942C140.875 43.3541 140.901 42.708 141.002 42.0559C141.12 41.4178 141.347 40.7022 141.682 39.9091C142.032 39.1147 142.497 38.2194 143.076 37.223C143.671 36.2407 144.42 35.0775 145.324 33.7336L149.153 24.1158C147.088 27.0081 145.184 29.2435 143.443 30.8221C141.703 32.4007 140.027 33.2533 138.416 33.3801C137.9 33.4207 137.449 33.3335 137.066 33.1183C136.683 32.9184 136.47 32.5441 136.427 31.9954C136.367 31.2333 136.481 30.3579 136.771 29.369C136.942 28.834 137.118 28.3448 137.297 27.9013C137.475 27.4426 137.661 26.9909 137.855 26.5462C138.049 26.0862 138.247 25.5952 138.45 25.0731C138.669 24.5498 138.898 23.9644 139.138 23.3168C139.391 22.6527 139.66 21.8954 139.945 21.0449C140.244 20.1779 140.57 19.1708 140.923 18.0235C141.18 17.4052 141.541 16.9473 142.007 16.65C142.472 16.3374 142.932 16.1631 143.388 16.1272C143.859 16.0902 144.263 16.1734 144.6 16.3769C144.951 16.564 145.141 16.8404 145.17 17.2062C145.184 17.3891 145.166 17.5515 145.116 17.6935L141.631 26.7321C141.453 27.1908 141.374 27.5498 141.395 27.8089C141.413 28.0375 141.513 28.1446 141.695 28.1303C141.862 28.1171 142.068 28.0165 142.314 27.8286C142.559 27.6406 142.787 27.4309 142.998 27.1996L151.68 17.1769Z" fill="black"/>
</g>
</svg>
